# xmcd
#
# Track frame offsets: 
#        150
#        16935
#        42762
#        55883
#        75079
#        97430
#
# Disc length: 1458 seconds
#
# Revision: 0
# Processed by: cddbd v1.5.2PL0 Copyright (c) Steve Scherf et al.
# Submitted via: ExactAudioCopy v1.3
#
DISCID=3e05b006
DTITLE=The Blue Chevys - Turn It Back
DYEAR=2016
DGENRE=Rock and Roll, Rhythm and Blues
TTITLE0=Burning Heart
TTITLE1=Follow The Moon
TTITLE2=Snakes
TTITLE3=No Worries
TTITLE4=Turn It Back
TTITLE5=Loving Fool
EXTD=
EXTT0=
EXTT1=
EXTT2=
EXTT3=
EXTT4=
EXTT5=
PLAYORDER=
